<?xml version="1.0" standalone="no"?>
<!DOCTYPE svg PUBLIC "-//W3C//DTD SVG 20010904//EN"
 "http://www.w3.org/TR/2001/REC-SVG-20010904/DTD/svg10.dtd">
<svg version="1.0" xmlns="http://www.w3.org/2000/svg"
 width="300.000000pt" height="169.000000pt" viewBox="0 0 300.000000 169.000000"
 preserveAspectRatio="xMidYMid meet">
<metadata>
Created by potrace 1.10, written by Peter Selinger 2001-2011
</metadata>
<g transform="translate(0.000000,169.000000) scale(0.100000,-0.100000)"
fill="#000000" stroke="none">
<path d="M390 1550 c20 -13 83 -13 75 0 -3 6 -25 10 -48 10 -31 0 -38 -3 -27
-10z"/>
<path d="M490 1547 c11 -12 42 -17 122 -20 59 -2 105 -1 103 3 -3 4 -49 11
-102 14 -54 4 -107 10 -118 13 -18 5 -18 4 -5 -10z"/>
<path d="M0 1509 c0 -7 14 -8 39 -4 23 4 48 2 60 -5 12 -6 21 -7 21 -1 0 14
-27 21 -76 21 -25 0 -44 -5 -44 -11z"/>
<path d="M555 1475 c-40 -19 -84 -54 -66 -55 20 0 89 41 95 57 3 7 4 13 3 13
-1 -1 -15 -7 -32 -15z"/>
<path d="M1685 1481 c-3 -6 12 -10 35 -9 45 0 62 -8 41 -21 -9 -6 -1 -8 20 -6
19 2 46 3 62 4 15 1 27 6 27 11 0 6 -15 10 -32 10 -18 -1 -51 3 -73 9 -50 13
-72 14 -80 2z"/>
<path d="M2375 1460 l-30 -6 25 -7 c14 -4 50 -6 80 -6 49 1 52 2 25 10 -46 14
-67 16 -100 9z"/>
<path d="M1257 1453 l-28 -4 37 -20 c44 -22 89 -26 78 -6 -5 7 -1 7 10 -2 12
-10 20 -11 24 -4 4 6 16 13 27 15 18 4 17 6 -8 16 -28 12 -83 13 -140 5z"/>
<path d="M2010 1450 c-17 -11 -8 -15 52 -23 28 -4 36 -2 32 8 -9 22 -59 31
-84 15z"/>
<path d="M204 1443 c-20 -3 -34 -11 -37 -22 -5 -19 13 -20 58 -1 11 4 36 12
55 18 l35 10 -40 -1 c-22 0 -54 -2 -71 -4z"/>
<path d="M1560 1440 c-7 -5 4 -9 29 -12 22 -2 42 1 44 7 2 6 14 5 32 -3 29
-14 49 -7 25 8 -18 11 -112 11 -130 0z"/>
<path d="M720 1433 c-19 -3 -39 -9 -44 -14 -6 -5 32 -8 100 -8 60 1 99 4 87 6
-13 2 -23 9 -23 14 0 9 -52 10 -120 2z"/>
<path d="M2213 1433 c9 -2 17 -8 17 -12 0 -6 33 -7 50 -1 9 3 -45 18 -65 18
-16 0 -17 -1 -2 -5z"/>
<path d="M1451 1409 c-41 -12 -38 -15 18 -23 25 -3 49 -10 55 -16 5 -5 19 -10
31 -10 16 0 17 2 5 10 -13 9 -13 11 -1 19 11 7 4 12 -25 20 -21 6 -41 11 -44
10 -3 0 -20 -5 -39 -10z"/>
<path d="M370 1400 c8 -5 30 -7 48 -4 18 4 38 2 45 -3 6 -6 26 -13 42 -17 l30
-7 -30 21 c-22 14 -46 20 -90 20 -42 0 -56 -3 -45 -10z"/>
<path d="M620 1400 c0 -5 12 -12 28 -16 15 -4 33 -14 41 -23 9 -10 15 -12 18
-5 2 8 15 9 38 4 20 -4 35 -4 35 1 0 5 -8 9 -17 10 -34 1 -64 9 -93 24 -34 17
-50 19 -50 5z"/>
<path d="M1205 1390 c-11 -4 -32 -6 -46 -3 -17 3 -28 0 -32 -9 -4 -11 4 -15
29 -16 19 -1 34 3 34 8 0 6 6 10 14 10 8 0 18 5 21 10 7 11 7 11 -20 0z"/>
<path d="M1375 1390 l-30 -5 32 -14 c37 -15 75 -3 45 15 -9 5 -30 7 -47 4z"/>
<path d="M2605 1370 c28 -5 57 -7 65 -5 8 2 32 0 54 -5 28 -6 35 -5 28 2 -7 7
-53 13 -104 14 -81 2 -86 1 -43 -6z"/>
<path d="M307 1346 c14 -18 27 -21 84 -21 37 0 71 3 75 8 4 4 -20 7 -54 7 -33
0 -63 4 -66 9 -3 5 -17 11 -30 13 -24 5 -24 4 -9 -16z"/>
<path d="M1275 1360 c11 -5 38 -8 60 -8 34 0 36 1 15 8 -14 4 -41 8 -60 8 -28
1 -31 -1 -15 -8z"/>
<path d="M1905 1360 c-14 -6 -1 -9 43 -9 40 -1 61 3 57 9 -7 12 -72 12 -100 0z"/>
<path d="M2127 1361 c-20 -4 -39 -10 -41 -12 -3 -2 81 -3 186 -2 105 2 193 5
196 7 5 6 7 6 -168 11 -74 2 -152 0 -173 -4z"/>
<path d="M2814 1351 c6 -10 112 -9 122 2 4 4 -23 7 -60 7 -37 0 -65 -4 -62 -9z"/>
<path d="M1815 1319 c-16 -5 -145 -11 -285 -13 -189 -2 -255 -6 -258 -16 -3
-9 21 -11 104 -7 60 3 118 9 128 13 14 5 17 4 12 -4 -5 -9 39 -11 181 -9 103
2 205 0 228 -4 44 -9 137 -1 130 11 -4 7 -73 19 -140 25 -16 1 -39 5 -50 8
-11 3 -33 1 -50 -4z"/>
<path d="M1040 1285 c7 -8 21 -15 31 -15 11 0 19 7 19 15 0 10 -10 15 -31 15
-27 0 -30 -2 -19 -15z"/>
<path d="M1114 1281 c8 -12 86 -12 86 0 0 5 -21 9 -46 9 -25 0 -43 -4 -40 -9z"/>
<path d="M392 1258 c-10 -4 0 -7 26 -7 27 -1 41 -5 37 -11 -4 -6 -11 -8 -16
-5 -5 4 -9 2 -9 -4 0 -5 5 -11 12 -13 18 -6 68 3 63 12 -3 5 12 6 32 4 241
-24 302 -26 428 -9 61 8 121 12 134 8 21 -5 22 -4 12 16 -7 12 -17 19 -24 14
-6 -4 -30 -6 -54 -4 -24 1 -43 -2 -43 -7 0 -8 -79 -18 -222 -27 -60 -4 -50 19
13 30 56 10 48 18 -14 12 -32 -3 -69 -12 -82 -21 -14 -9 -25 -12 -25 -7 0 6
-7 8 -15 5 -8 -4 -15 -2 -15 4 0 5 -17 10 -37 10 -21 1 -71 3 -111 4 -40 2
-81 0 -90 -4z"/>
<path d="M2130 1260 c-41 -4 -69 -7 -61 -8 11 -2 10 -6 -5 -17 -17 -13 -11
-15 71 -12 69 1 90 5 90 16 0 8 9 17 20 22 24 9 1 9 -115 -1z m75 -20 c14 -6
4 -9 -37 -9 -31 -1 -60 4 -63 9 -8 12 71 12 100 0z"/>
<path d="M1398 1254 c-4 -3 -37 -5 -75 -5 -37 0 -75 -4 -83 -9 -10 -7 17 -8
79 -6 51 3 98 9 104 15 8 8 7 11 -4 11 -9 0 -18 -3 -21 -6z"/>
<path d="M1496 1248 c5 -7 3 -8 -5 -3 -18 11 -141 -107 -141 -136 0 -9 -9 -24
-20 -34 -11 -10 -22 -26 -25 -35 -3 -10 -15 -20 -25 -23 -14 -3 -20 -14 -20
-32 0 -25 -41 -94 -76 -130 -9 -9 -24 -13 -34 -10 -13 4 -26 -4 -43 -27 -46
-63 -47 -77 -3 -33 14 14 28 25 31 25 15 0 95 67 104 88 6 12 15 22 21 22 19
0 81 64 96 99 17 40 17 44 4 36 -5 -3 -10 -2 -10 4 0 19 15 17 35 -5 11 -11
21 -25 22 -30 1 -5 5 -22 8 -37 5 -19 3 -27 -6 -27 -7 0 -9 3 -6 6 3 4 1 16
-5 28 -7 11 -11 26 -9 31 1 6 -2 5 -9 -1 -7 -7 -8 -19 -1 -36 7 -18 6 -29 -2
-37 -9 -9 -9 -11 3 -7 15 6 143 -36 138 -45 -2 -2 4 5 13 15 17 19 17 19 22 0
4 -18 5 -18 6 -1 0 11 -7 21 -17 24 -16 4 -22 31 -11 53 1 3 3 25 4 48 1 43 0
44 -27 38 -25 -5 -28 -3 -28 20 0 17 -4 23 -12 18 -10 -6 -10 -4 0 7 6 7 12
22 13 34 0 19 1 19 9 -2 5 -12 18 -26 29 -32 22 -12 41 -15 26 -3 -18 13 -36
53 -29 64 4 6 3 8 -3 5 -6 -4 -17 0 -24 9 -10 13 -10 17 2 25 20 12 29 11 29
-4 0 -8 9 -22 20 -32 18 -17 20 -17 14 -2 -7 19 6 23 23 6 6 -6 28 -9 49 -6
l39 4 -43 1 c-30 1 -41 6 -36 13 5 8 -1 10 -19 7 -20 -4 -30 1 -41 16 -13 21
-12 22 22 18 24 -3 33 -1 28 7 -4 6 -25 11 -47 11 -28 0 -38 -4 -33 -12z m-30
-85 c0 -10 -9 -21 -18 -25 -11 -5 -15 -13 -11 -24 5 -14 3 -14 -15 -3 -21 13
-21 13 -2 34 11 12 17 25 13 28 -3 4 3 7 14 7 14 0 20 -6 19 -17z m-5 -90 c5
-13 13 -23 18 -23 5 0 12 -15 15 -32 3 -18 8 -43 10 -54 4 -17 0 -21 -15 -17
-10 3 -16 9 -13 14 3 5 10 6 16 3 7 -4 8 -2 4 4 -4 6 -13 9 -21 5 -8 -3 -15
-1 -15 5 0 6 -16 27 -35 46 -36 38 -46 62 -21 53 10 -4 13 -1 10 8 -4 9 1 13
16 12 13 -1 26 -11 31 -24z"/>
<path d="M1640 1240 l-45 -7 58 -1 c32 -1 57 2 57 8 0 11 -1 11 -70 0z"/>
<path d="M252 1228 c9 -6 7 -10 -9 -14 -13 -4 -21 -10 -18 -14 3 -5 26 -2 52
6 25 8 62 14 81 14 20 0 32 3 28 7 -4 4 -39 8 -77 9 -39 0 -64 -3 -57 -8z"/>
<path d="M1910 1221 c-18 -6 -11 -8 27 -8 28 1 50 4 47 9 -6 10 -39 9 -74 -1z"/>
<path d="M419 1141 c8 -5 57 -9 110 -9 80 0 88 2 51 8 -63 12 -179 12 -161 1z"/>
<path d="M875 1139 c-88 -4 -187 -11 -220 -17 -105 -19 -233 -26 -249 -13 -20
16 -199 24 -193 8 2 -7 17 -11 34 -9 18 2 35 -3 43 -13 14 -17 35 -21 24 -4
-5 9 1 10 20 5 32 -8 189 -9 225 -1 14 2 104 5 200 5 97 1 226 6 286 12 61 6
129 12 153 12 23 1 42 4 42 9 0 4 -6 7 -12 8 -57 4 -221 3 -353 -2z"/>
<path d="M1587 1099 c6 -6 9 -18 6 -26 -5 -12 -1 -14 18 -8 13 5 30 8 37 8 16
0 12 29 -6 35 -7 2 -10 -2 -6 -12 8 -20 -10 -21 -26 -1 -7 8 -17 15 -23 15 -8
0 -8 -3 0 -11z"/>
<path d="M1972 1085 c2 -3 31 -7 64 -9 38 -3 50 -1 34 4 -28 9 -106 13 -98 5z"/>
<path d="M2328 1063 c23 -2 59 -2 80 0 20 2 1 4 -43 4 -44 0 -61 -2 -37 -4z"/>
<path d="M55 1045 c17 -8 44 -14 60 -14 25 0 27 2 10 8 -11 4 -38 11 -60 14
l-40 5 30 -13z"/>
<path d="M1670 1045 c14 -8 21 -14 16 -15 -16 0 37 -50 53 -50 14 1 14 3 -1
14 -10 7 -18 16 -18 19 0 16 -36 47 -55 47 -18 -1 -18 -2 5 -15z"/>
<path d="M1760 1050 c36 -12 72 -12 65 0 -3 6 -25 10 -48 9 -36 -1 -38 -2 -17
-9z"/>
<path d="M2908 1053 c17 -2 47 -2 65 0 17 2 3 4 -33 4 -36 0 -50 -2 -32 -4z"/>
<path d="M1624 1031 c21 -23 22 -49 2 -32 -10 8 -16 9 -21 1 -4 -6 -1 -9 7 -8
7 2 12 -3 10 -11 -3 -12 0 -12 11 -2 12 9 16 9 21 -1 3 -7 3 -2 -1 12 -3 14
-6 30 -6 37 0 6 -9 14 -20 17 -17 4 -18 3 -3 -13z"/>
<path d="M2510 1031 c0 -5 -12 -12 -27 -14 -20 -3 -15 -4 15 -6 31 -1 42 3 42
14 0 8 -7 15 -15 15 -8 0 -15 -4 -15 -9z"/>
<path d="M2560 1030 c13 -9 13 -10 0 -11 -41 -4 57 -16 145 -18 55 -1 110 -4
123 -8 13 -3 22 -1 22 6 0 7 27 11 75 11 41 0 75 4 75 9 0 4 -85 7 -190 5
-115 -2 -192 0 -195 6 -3 6 -21 10 -38 10 -24 0 -28 -3 -17 -10z"/>
<path d="M1550 986 c0 -4 4 -14 9 -24 5 -9 12 -26 16 -37 5 -16 8 -17 15 -5 8
12 10 10 10 -7 0 -29 1 -33 17 -63 10 -19 10 -26 0 -32 -8 -5 -8 -8 -1 -8 23
0 35 26 24 54 -10 28 -2 34 20 14 7 -7 2 7 -12 32 -19 33 -34 46 -55 50 -15 3
-27 10 -25 15 2 5 -1 11 -7 13 -6 2 -11 1 -11 -2z"/>
<path d="M1820 983 c19 -2 55 -8 80 -14 25 -6 65 -12 90 -15 25 -2 60 -8 77
-13 18 -5 35 -6 37 -2 6 9 -246 52 -289 49 -28 -1 -27 -1 5 -5z"/>
<path d="M1738 945 c-4 -20 -1 -25 14 -25 11 0 17 -4 14 -9 -7 -11 41 -71 55
-71 6 0 7 5 3 11 -5 8 39 10 157 6 90 -3 148 -2 129 2 l-35 8 35 4 c19 2 -37
5 -125 6 -153 3 -222 14 -209 35 3 5 -2 16 -12 23 -18 14 -18 14 1 15 17 0 17
2 5 10 -23 15 -27 12 -32 -15z"/>
<path d="M448 953 c18 -2 45 -2 60 0 15 2 0 4 -33 4 -33 0 -45 -2 -27 -4z"/>
<path d="M1676 904 c19 -42 21 -55 10 -51 -12 5 -13 1 -7 -15 4 -12 14 -24 22
-26 12 -3 12 -2 0 6 -11 8 -12 14 -4 24 12 15 13 48 3 48 -4 0 -13 14 -20 30
-7 17 -16 33 -21 36 -4 2 3 -21 17 -52z"/>
<path d="M2649 929 c-16 -9 167 -30 229 -25 29 2 55 0 58 -5 3 -5 10 -6 16 -3
21 13 -19 24 -97 25 -44 0 -106 4 -138 8 -31 4 -62 4 -68 0z"/>
<path d="M1401 913 c-9 -17 -11 -25 -11 -40 0 -5 -4 -3 -8 4 -5 8 -11 8 -24
-1 -11 -8 -14 -17 -7 -27 7 -11 9 -11 9 3 0 19 23 20 49 4 10 -7 12 -5 6 4 -5
8 -3 11 6 8 13 -4 33 -35 76 -121 33 -64 42 -53 10 12 -13 28 -21 51 -17 51
12 0 7 26 -9 40 -13 13 -14 12 -8 -3 4 -11 3 -16 -3 -12 -6 3 -10 14 -10 24 0
11 -9 21 -21 24 -14 4 -20 11 -16 21 9 22 -10 30 -22 9z"/>
<path d="M915 900 l-40 -5 45 -7 c47 -7 97 -1 106 13 5 9 -41 9 -111 -1z"/>
<path d="M51 883 c-1 -20 4 -23 37 -23 20 0 44 5 52 10 11 7 2 10 -32 10 -28
0 -48 5 -51 13 -3 6 -6 2 -6 -10z"/>
<path d="M2018 893 c18 -2 45 -2 60 0 15 2 0 4 -33 4 -33 0 -45 -2 -27 -4z"/>
<path d="M1558 885 c-8 -8 14 -65 24 -65 11 0 10 18 -2 25 -6 4 -8 10 -6 14 6
9 -9 33 -16 26z"/>
<path d="M2160 883 c0 -5 66 -10 148 -12 81 -2 183 -5 227 -8 45 -2 91 0 105
6 19 8 7 9 -54 6 -44 -2 -84 -1 -90 2 -15 10 -336 15 -336 6z"/>
<path d="M1294 873 c5 -9 -1 -11 -23 -7 -16 3 -37 1 -48 -4 -17 -10 -17 -11 0
-17 9 -4 17 -13 17 -20 0 -8 11 -12 26 -11 19 1 24 5 20 19 -4 18 18 24 29 7
3 -5 1 -10 -6 -10 -7 0 -9 -3 -6 -7 4 -3 -1 -11 -10 -18 -14 -11 -13 -13 10
-19 15 -3 27 -12 27 -19 0 -7 9 -18 20 -25 12 -7 18 -17 15 -22 -3 -5 5 -16
17 -25 20 -13 21 -17 8 -25 -12 -8 -12 -10 5 -11 19 0 19 -1 1 -8 -16 -6 -14
-9 15 -21 19 -8 39 -21 46 -30 7 -8 13 -11 13 -6 0 5 7 3 15 -4 12 -10 18 -10
31 1 15 12 14 15 -6 31 -12 10 -28 18 -35 18 -8 0 -15 10 -17 22 -2 12 -10 24
-18 26 -13 5 -13 3 -1 -12 8 -9 11 -19 8 -23 -4 -3 1 -12 11 -20 15 -13 15
-13 -8 -7 -33 9 -30 5 -39 61 -5 32 -12 47 -20 45 -8 -2 -11 3 -8 11 3 8 -7
27 -24 43 -16 15 -29 35 -29 44 0 9 -10 25 -22 36 -12 10 -18 13 -14 7z"/>
<path d="M1526 855 c-4 -15 -2 -33 3 -39 6 -7 8 -16 5 -19 -3 -3 8 -4 24 -2
25 3 31 0 34 -18 2 -12 7 -20 11 -19 12 5 67 -49 67 -65 0 -8 5 -11 10 -8 6 3
10 -1 10 -10 0 -12 5 -15 16 -11 11 4 15 2 11 -8 -6 -15 11 -36 29 -36 16 0 6
45 -15 64 -16 14 -20 16 -41 16 -5 0 -9 5 -7 12 1 6 -12 21 -30 32 -20 13 -30
27 -28 36 3 9 -1 7 -11 -5 -16 -20 -16 -20 -11 2 4 18 -1 25 -29 35 -19 6 -30
14 -26 17 5 4 3 16 -4 29 l-12 23 -6 -26z"/>
<path d="M1747 861 c2 -2 -3 -11 -10 -19 -10 -13 -9 -14 1 -8 15 9 45 -12 36
-26 -7 -11 12 -35 40 -50 18 -10 19 -9 9 4 -7 8 -10 18 -6 21 3 4 -2 9 -11 13
-9 3 -16 10 -16 15 0 4 -10 18 -23 31 -12 13 -21 21 -20 19z"/>
<path d="M119 840 c13 -6 79 -13 145 -16 67 -3 141 -12 166 -20 25 -7 81 -22
125 -33 44 -11 98 -26 121 -35 22 -8 87 -18 144 -21 57 -3 106 -8 108 -10 3
-2 13 0 23 6 12 6 19 6 19 0 0 -14 43 0 58 18 11 14 11 14 6 -2 -5 -13 -2 -16
10 -11 9 3 13 10 10 15 -3 5 -1 9 5 9 6 0 8 6 5 13 -4 11 -15 12 -57 3 -29 -5
-110 -9 -180 -8 -111 2 -132 5 -156 23 -16 12 -56 24 -97 30 -38 5 -91 16
-119 24 -60 17 -373 31 -336 15z"/>
<path d="M1852 833 c21 -5 178 -162 178 -177 0 -6 9 -17 19 -23 16 -10 20 -9
25 4 6 14 -25 62 -47 71 -4 2 -5 7 -2 12 3 5 -4 12 -16 15 -17 6 -19 9 -8 16
20 12 31 11 23 -3 -4 -6 -3 -8 4 -4 5 3 13 0 15 -6 4 -8 6 -9 6 -2 2 23 -31
38 -75 35 -26 -1 -44 2 -44 8 0 11 23 18 80 24 19 2 3 5 -36 5 -50 2 -75 7
-84 17 -7 8 -22 14 -34 14 -17 -1 -17 -2 -4 -6z"/>
<path d="M1153 804 c-12 -13 -18 -24 -13 -24 5 0 7 -8 5 -17 -3 -10 2 -3 10
15 14 29 20 33 41 28 15 -4 23 -3 20 3 -3 5 0 12 6 14 7 3 0 5 -17 5 -19 0
-38 -9 -52 -24z"/>
<path d="M2945 815 c-27 -8 -66 -15 -85 -16 -32 -1 -33 -2 -10 -8 l25 -8 -25
-5 c-25 -5 -25 -5 3 -7 15 0 27 3 27 9 0 5 10 9 23 9 12 -1 35 3 50 10 16 6
33 9 38 5 5 -3 9 2 9 10 0 9 -1 16 -2 15 -2 0 -25 -7 -53 -14z"/>
<path d="M1649 818 c-9 -33 -6 -48 15 -62 14 -8 28 -25 31 -37 5 -15 10 -18
18 -10 7 7 7 14 -2 25 -6 8 -8 16 -4 18 4 3 2 3 -5 1 -7 -1 -20 13 -28 32 -12
30 -22 42 -25 33z"/>
<path d="M1555 783 c-34 -8 -38 -20 -8 -25 23 -3 29 0 30 14 1 10 1 17 0 17
-1 -1 -11 -3 -22 -6z"/>
<path d="M2770 780 c0 -4 -6 -7 -12 -8 -7 0 -59 -4 -115 -8 -57 -4 -103 -11
-103 -15 0 -4 8 -7 18 -7 9 0 50 -2 90 -6 46 -4 72 -2 72 4 0 5 3 9 8 8 4 -1
21 1 38 6 30 7 44 33 17 33 -7 0 -13 -3 -13 -7z"/>
<path d="M1086 733 c-14 -15 -26 -33 -26 -40 0 -7 -4 -13 -10 -13 -5 0 -14 -9
-19 -19 -9 -15 -7 -20 11 -24 16 -4 18 -3 9 6 -15 15 -14 27 3 27 8 0 20 14
28 30 7 17 18 28 25 26 14 -6 26 21 13 29 -5 3 -20 -7 -34 -22z"/>
<path d="M1755 740 c-17 -19 -16 -20 9 -50 l26 -31 -2 40 c-1 24 -5 38 -11 34
-6 -4 -8 0 -4 10 8 22 4 21 -18 -3z"/>
<path d="M2102 739 c-9 -4 -21 -4 -25 -2 -16 9 11 -33 42 -65 31 -34 77 -43
87 -18 3 8 13 12 26 8 14 -3 19 -1 14 6 -10 17 55 20 88 4 27 -13 31 -13 46 5
20 26 31 21 120 -51 41 -34 86 -66 100 -73 92 -40 110 -42 150 -13 l27 19 22
-23 23 -24 -24 -8 c-12 -4 -52 -7 -87 -6 -55 1 -62 0 -46 -11 21 -16 12 -57
-13 -57 -9 0 -30 -9 -47 -20 -16 -11 -47 -25 -67 -30 -41 -12 -46 -21 -23 -40
15 -13 59 -4 50 11 -4 5 2 6 11 2 13 -5 16 -3 11 10 -3 9 -2 19 3 22 6 4 10 1
10 -4 0 -23 29 -10 54 24 15 20 31 33 36 30 5 -3 11 3 14 13 5 16 16 18 65 17
33 -1 70 4 82 11 19 10 13 11 -42 9 -35 -2 -50 -1 -32 2 46 6 60 27 39 58 -23
35 -41 40 -71 21 -13 -9 -34 -16 -46 -16 -28 0 -86 27 -130 62 -20 15 -40 28
-43 28 -10 0 -46 39 -46 50 0 11 -31 28 -45 24 -5 -2 -51 -7 -100 -13 -105
-11 -212 -4 -219 14 -3 10 24 13 122 14 142 1 273 9 282 17 7 8 -396 1 -418
-7z"/>
<path d="M1250 729 c0 -5 7 -12 15 -15 8 -4 13 -9 11 -13 -3 -4 4 -7 14 -7 14
0 16 4 10 17 -10 18 -50 33 -50 18z"/>
<path d="M1420 721 c0 -6 9 -15 20 -21 11 -6 20 -8 20 -4 0 3 8 0 17 -7 12
-10 14 -10 9 -1 -10 17 -66 45 -66 33z"/>
<path d="M1806 723 c-3 -4 -6 -16 -6 -27 1 -19 2 -19 11 -3 5 9 17 17 24 17 8
0 15 4 15 8 0 9 -36 13 -44 5z"/>
<path d="M75 703 c-40 -20 -75 -53 -75 -70 0 -20 15 -16 41 12 13 13 29 25 36
25 6 0 13 6 16 13 2 7 22 -7 49 -36 45 -47 70 -54 82 -21 3 8 16 14 30 14 14
0 28 5 32 11 3 6 16 8 29 5 13 -3 42 1 66 9 37 13 44 13 58 1 9 -8 41 -17 71
-21 30 -3 74 -11 97 -17 32 -8 47 -8 57 1 10 8 16 9 19 1 3 -6 4 -5 3 2 -3 15
-59 27 -129 27 -27 1 -71 11 -98 22 -43 19 -55 20 -87 11 -20 -6 -61 -13 -90
-16 -29 -3 -60 -10 -67 -16 -12 -10 -24 -5 -62 23 -47 34 -49 35 -78 20z"/>
<path d="M954 691 c-9 -9 -80 -31 -104 -32 -23 0 -23 -1 -5 -9 33 -14 65 -12
65 6 0 8 4 13 8 10 12 -7 82 13 82 24 0 9 -37 10 -46 1z"/>
<path d="M1825 689 c-4 -5 3 -9 13 -9 11 0 22 -9 25 -20 4 -16 0 -20 -19 -20
-13 0 -24 -4 -24 -10 0 -5 4 -10 9 -10 5 0 16 -3 24 -6 9 -3 16 3 20 17 5 19
8 20 21 9 9 -7 16 -9 16 -5 0 4 6 2 13 -4 8 -6 18 -7 22 -3 5 4 5 -1 2 -10 -8
-22 -3 -22 27 -2 18 11 26 12 32 3 5 -8 3 -9 -6 -4 -9 5 -11 4 -6 -4 4 -7 13
-10 19 -8 7 2 20 0 29 -4 10 -6 19 -5 23 1 3 5 -3 10 -15 10 -11 0 -23 7 -26
15 -4 8 -16 15 -28 15 -12 0 -27 5 -33 11 -7 7 -17 8 -25 3 -25 -16 -38 -12
-52 15 -14 26 -50 39 -61 20z"/>
<path d="M1650 653 c0 -14 17 -35 26 -33 5 1 10 -4 13 -11 2 -7 -1 -9 -8 -5
-7 5 -9 1 -5 -8 3 -9 1 -16 -6 -16 -6 0 -8 -5 -4 -11 5 -8 9 -8 14 1 6 9 11 6
20 -9 7 -14 17 -20 27 -17 11 4 13 2 9 -9 -3 -8 -1 -15 4 -15 15 0 12 26 -5
40 -8 7 -15 18 -15 24 0 6 -13 26 -29 44 -30 32 -41 39 -41 25z"/>
<path d="M1235 629 c-4 -11 -4 -23 -1 -26 3 -4 6 1 6 10 0 10 5 17 11 17 5 0
8 -4 5 -9 -4 -5 3 -7 14 -4 23 6 23 6 -7 22 -19 9 -23 8 -28 -10z"/>
<path d="M989 630 c-12 -8 -11 -12 6 -24 34 -26 47 -17 22 16 -9 11 -18 14
-28 8z"/>
<path d="M63 617 c2 -7 13 -17 25 -23 12 -6 19 -13 16 -16 -3 -4 4 -9 15 -13
25 -8 18 -25 -10 -25 -10 0 -19 -4 -19 -9 0 -6 12 -6 29 -1 21 6 33 4 46 -9
16 -15 17 -15 6 6 -6 12 -16 25 -21 28 -6 3 -10 15 -10 25 0 21 -8 28 -51 40
-22 7 -29 6 -26 -3z"/>
<path d="M220 585 c-24 -24 -41 -48 -37 -52 4 -3 13 -1 19 5 15 15 32 16 23 2
-3 -5 -4 -10 -2 -10 3 0 17 23 31 50 14 28 23 50 18 50 -4 0 -28 -20 -52 -45z"/>
<path d="M783 623 c-22 -8 -14 -23 13 -23 15 0 24 5 22 12 -5 14 -18 18 -35
11z"/>
<path d="M2167 610 c-9 -11 -24 -20 -32 -20 -20 0 -111 -46 -120 -60 -4 -6
-11 -8 -16 -5 -5 4 -17 1 -26 -5 -41 -25 49 -1 93 25 53 31 104 48 104 34 0
-5 -6 -9 -13 -9 -8 0 -14 -7 -14 -15 0 -13 2 -13 17 0 9 8 24 15 33 15 9 0 17
5 17 10 0 6 -7 10 -15 10 -8 0 -15 4 -15 10 0 5 7 7 15 4 11 -5 13 -2 9 10 -8
21 -16 20 -37 -4z"/>
<path d="M2333 622 c-13 -2 -23 -7 -23 -12 0 -4 -9 -10 -21 -13 -14 -4 -20
-13 -19 -29 4 -40 1 -47 -22 -50 -25 -3 -23 -24 1 -21 8 1 24 -5 35 -14 21
-15 21 -15 -3 -8 -15 5 -21 3 -17 -3 4 -6 -2 -8 -14 -5 -14 4 -19 1 -15 -8 3
-9 -10 -23 -34 -36 -22 -12 -45 -36 -52 -52 -7 -16 -17 -27 -22 -24 -5 3 -3
-4 4 -15 16 -25 29 -19 24 9 -6 28 20 66 31 48 4 -7 2 -15 -4 -17 -7 -2 -12
-8 -12 -13 0 -5 12 -3 26 3 23 11 24 13 9 24 -18 13 -3 30 17 18 7 -4 8 -3 4
4 -9 16 35 42 60 36 21 -6 21 -6 -2 -29 -12 -12 -21 -31 -20 -41 2 -11 -2 -22
-8 -26 -8 -5 -7 -10 2 -18 6 -5 10 -7 7 -4 -2 4 3 13 11 21 8 8 12 23 9 32 -3
10 3 25 14 35 23 21 20 54 -8 77 -20 16 -20 17 -1 34 18 16 18 19 3 41 -14 22
-14 24 1 24 11 0 14 -5 10 -12 -4 -7 -3 -8 5 -4 6 4 9 11 6 16 -3 4 2 11 11
14 22 8 26 8 19 -4 -3 -5 -2 -10 3 -10 12 0 24 28 14 33 -4 2 -17 1 -29 -1z"/>
<path d="M2433 618 c2 -7 12 -12 21 -12 20 2 21 -19 1 -36 -21 -18 -19 -33 5
-27 21 5 28 -7 10 -18 -6 -4 -7 -11 -4 -17 4 -5 1 -21 -7 -34 -16 -30 -13 -32
32 -27 l37 5 -19 54 c-10 29 -19 62 -19 73 0 11 -7 27 -16 35 -18 19 -48 21
-41 4z"/>
<path d="M663 593 c-14 -3 -24 -14 -28 -33 -8 -38 -28 -52 -64 -47 -20 3 -31
0 -35 -9 -3 -8 -1 -14 5 -14 6 0 9 -7 5 -15 -3 -8 0 -15 6 -15 7 0 3 -7 -8
-16 -18 -15 -17 -15 6 -1 14 8 24 18 22 21 -5 12 41 44 55 39 7 -3 13 1 14 8
3 51 15 69 48 72 11 1 21 5 21 9 0 8 -9 8 -47 1z"/>
<path d="M1540 592 c0 -4 9 -13 20 -20 12 -7 18 -17 15 -22 -4 -6 1 -13 10
-17 10 -3 21 0 26 8 14 22 11 29 -11 29 -11 0 -23 7 -26 15 -6 15 -34 21 -34
7z"/>
<path d="M1315 581 c-4 -7 4 -11 19 -11 20 0 25 -6 28 -27 2 -16 9 -29 16 -29
6 -1 15 -3 20 -4 4 -1 10 -2 15 -1 4 0 7 -4 7 -11 0 -6 3 -9 6 -5 4 3 15 -4
25 -16 11 -13 18 -17 19 -9 0 18 -40 51 -62 52 -10 0 -18 7 -18 15 0 8 -4 15
-10 15 -5 0 -10 7 -10 15 0 8 -4 15 -9 15 -5 0 -16 3 -24 6 -8 3 -18 1 -22 -5z"/>
<path d="M1034 569 c-4 -6 -20 -8 -40 -4 -21 3 -34 2 -34 -5 0 -5 3 -10 8 -11
4 0 16 -3 27 -5 11 -3 26 -6 33 -6 6 -1 12 -5 12 -10 0 -5 7 -2 16 6 8 9 21
13 27 9 13 -8 18 -9 55 -11 13 -1 21 -6 17 -11 -3 -5 -1 -12 5 -16 6 -4 8 -10
6 -14 -7 -11 37 -76 54 -79 10 -1 8 4 -6 16 -32 28 -45 57 -32 70 8 8 9 12 1
12 -6 0 -13 9 -16 20 -4 14 -10 18 -23 13 -13 -5 -15 -3 -9 7 6 10 1 12 -23 7
-20 -4 -32 -2 -32 4 0 6 -4 7 -10 4 -5 -3 -10 -1 -10 4 0 14 -17 14 -26 0z"/>
<path d="M403 548 c-4 -13 -8 -27 -8 -33 -1 -5 -5 -20 -9 -33 -4 -14 -3 -28 3
-36 19 -22 2 -44 -45 -60 -25 -8 -42 -11 -39 -5 4 5 -3 9 -14 9 -26 0 -27 -15
-3 -26 25 -11 36 -11 48 -2 7 5 22 11 35 13 24 5 41 24 33 37 -3 4 -1 8 3 8 5
0 8 18 6 41 -2 32 1 40 12 35 19 -7 19 1 0 21 -21 21 -10 30 12 11 21 -18 87
-33 78 -18 -3 6 -1 10 5 10 6 0 8 5 5 10 -5 8 -11 8 -20 0 -10 -9 -18 -7 -32
7 -11 11 -25 17 -31 15 -7 -2 -12 1 -12 7 0 20 -18 12 -27 -11z"/>
<path d="M1420 554 c0 -15 27 -30 45 -24 15 5 16 8 4 15 -17 11 -49 17 -49 9z"/>
<path d="M2528 533 c27 -38 42 -49 41 -31 0 7 -14 24 -32 38 l-32 25 23 -32z"/>
<path d="M860 541 c0 -6 10 -8 21 -6 12 3 48 -8 79 -24 46 -22 57 -24 55 -12
-1 10 -18 19 -43 25 -23 5 -42 13 -42 17 0 5 -16 9 -35 9 -19 0 -35 -4 -35 -9z"/>
<path d="M1830 541 c0 -6 5 -11 10 -11 6 0 10 -7 10 -15 0 -10 10 -15 33 -14
l32 1 -26 11 c-14 7 -33 18 -43 26 -10 9 -16 10 -16 2z"/>
<path d="M2330 530 c13 -9 13 -11 0 -19 -8 -6 -11 -13 -7 -17 4 -4 15 0 25 9
15 16 15 19 2 27 -8 5 -19 10 -25 10 -5 0 -3 -5 5 -10z"/>
<path d="M280 521 c-50 -14 -90 -33 -90 -43 0 -7 5 -6 13 1 8 6 17 7 21 3 4
-4 14 2 22 12 13 18 14 18 14 2 0 -9 5 -14 10 -11 6 4 8 11 5 16 -6 8 23 14
53 10 6 -1 12 3 12 9 0 11 -21 11 -60 1z"/>
<path d="M830 521 c0 -8 7 -23 17 -33 23 -26 -3 -23 -30 3 -12 12 -15 18 -7
14 12 -6 13 -5 3 5 -11 12 -15 11 -25 -2 -7 -9 -25 -18 -40 -22 -16 -4 -28
-13 -28 -21 0 -12 8 -11 45 5 40 17 47 17 47 0 0 -3 9 -14 21 -25 11 -11 17
-14 13 -7 -4 7 -1 12 7 12 19 0 30 -27 14 -33 -7 -2 -2 -2 10 -1 12 2 24 0 28
-5 3 -6 18 -6 36 -1 16 5 38 6 47 3 14 -6 15 -5 2 9 -15 16 -27 17 -45 6 -13
-8 -55 9 -55 22 0 5 -7 18 -15 27 -8 10 -21 27 -29 38 -11 14 -15 16 -16 6z"/>
<path d="M1065 521 c-3 -6 10 -17 30 -27 19 -9 35 -20 35 -25 0 -5 5 -9 11 -9
8 0 9 4 0 13 -6 8 -7 18 -3 22 4 5 1 5 -5 1 -7 -4 -13 -3 -13 3 0 5 6 12 13
14 6 3 -6 3 -27 0 -28 -5 -37 -3 -32 5 4 7 5 12 2 12 -3 0 -7 -4 -11 -9z"/>
<path d="M1503 480 c19 -36 39 -55 36 -34 0 4 5 10 11 14 8 5 2 10 -14 14 -15
4 -24 11 -20 17 3 6 13 8 21 5 8 -4 11 -1 8 5 -4 6 -14 8 -22 5 -9 -4 -22 -1
-29 5 -7 6 -3 -8 9 -31z"/>
<path d="M1336 502 c-3 -6 -1 -14 5 -18 8 -4 7 -9 -2 -16 -10 -6 -7 -7 10 -3
15 5 21 3 17 -3 -3 -5 1 -13 9 -16 12 -4 13 -2 6 12 -21 38 -38 55 -45 44z"/>
<path d="M1811 493 c12 -14 12 -16 0 -8 -9 5 -12 4 -7 -3 3 -6 -2 -15 -11 -21
-10 -6 -13 -11 -6 -11 6 0 14 4 17 9 3 5 15 7 26 4 19 -5 20 -3 9 21 -7 14
-19 26 -27 26 -12 0 -12 -2 -1 -17z"/>
<path d="M465 490 c2 -4 -4 -18 -15 -30 -22 -26 -25 -40 -9 -40 6 0 9 -7 5
-15 -3 -8 -2 -14 2 -13 20 4 42 -16 37 -33 -4 -11 0 -26 9 -35 9 -8 16 -11 16
-5 0 5 -5 13 -12 17 -7 5 -3 11 13 17 l24 9 -22 10 c-30 14 -36 46 -11 54 11
3 17 8 15 11 -3 2 -14 0 -25 -6 -11 -6 -28 -8 -37 -5 -15 6 -15 8 1 25 9 10
22 15 30 12 8 -3 14 1 14 10 0 8 -9 17 -20 20 -11 3 -18 2 -15 -3z"/>
<path d="M1759 493 c-1 -5 -1 -11 0 -15 0 -4 -5 -5 -13 -2 -8 3 -17 0 -21 -6
-11 -18 0 -21 31 -8 31 14 43 38 19 38 -8 0 -16 -3 -16 -7z"/>
<path d="M2195 464 c-16 -25 -16 -27 0 -21 9 4 20 7 25 7 9 0 8 26 -2 35 -3 3
-13 -6 -23 -21z"/>
<path d="M2397 456 c29 -41 30 -44 4 -63 -9 -7 -11 -13 -5 -13 7 0 14 -9 17
-21 3 -12 10 -18 16 -15 15 10 24 -13 11 -29 -9 -11 -6 -13 22 -10 29 4 31 3
16 -9 -25 -18 -22 -34 5 -32 15 1 21 7 19 19 -2 9 2 17 8 17 5 0 10 5 10 10 0
6 -10 10 -22 10 -33 0 -71 44 -66 74 4 17 -5 35 -29 62 l-35 39 29 -39z"/>
<path d="M2932 476 c-18 -6 -30 -15 -26 -19 7 -6 -28 -12 -50 -8 -13 3 -26
-20 -26 -47 0 -17 -7 -24 -31 -29 -22 -4 -27 -8 -17 -14 9 -6 7 -9 -9 -9 -26
0 -32 -27 -8 -36 22 -9 18 -31 -6 -44 -11 -7 -18 -14 -15 -17 3 -3 -2 -12 -12
-20 -15 -13 -15 -13 5 -3 18 8 24 7 32 -9 9 -17 8 -19 -14 -16 -16 1 -25 -3
-25 -11 0 -8 -5 -14 -12 -14 -6 0 -8 3 -4 7 3 4 -6 12 -21 19 -22 10 -24 13
-8 13 13 1 16 4 9 11 -12 12 -47 2 -39 -10 3 -5 0 -12 -6 -16 -8 -4 -9 -3 -5
4 4 7 1 12 -9 12 -9 0 -13 4 -10 10 3 6 3 15 -1 21 -5 8 -9 8 -14 -1 -14 -23
-31 -1 -19 23 9 18 9 20 -2 10 -7 -7 -22 -13 -33 -13 -17 0 -18 2 -6 10 9 6
10 10 3 10 -17 0 -25 -17 -12 -25 7 -5 3 -15 -11 -30 -19 -20 -19 -23 -5 -29
9 -3 24 -6 33 -6 13 1 11 4 -7 14 -20 11 -21 14 -6 19 24 10 32 8 15 -3 -13
-8 -12 -10 5 -11 11 -1 24 -1 29 0 5 1 18 -7 30 -17 26 -25 66 -38 66 -22 0 6
-4 8 -10 5 -5 -3 -10 -1 -10 4 0 18 20 13 28 -6 8 -21 33 -23 47 -6 6 7 25 16
43 19 27 6 31 4 26 -10 -4 -10 -1 -16 7 -16 7 0 21 -8 32 -18 19 -16 20 -16 8
6 -6 12 -17 22 -23 22 -6 0 -9 3 -6 6 4 3 -7 18 -23 33 -34 33 -36 47 -11 74
9 11 13 18 7 15 -13 -8 -38 19 -25 27 6 3 10 3 10 0 0 -3 6 0 14 7 8 7 12 16
9 21 -2 4 11 8 29 8 18 1 25 3 15 6 -11 3 -16 10 -13 20 3 8 6 22 6 31 0 14 2
15 10 2 5 -9 5 -19 -1 -26 -8 -9 -5 -11 10 -7 24 6 26 14 9 31 -17 17 6 16 35
-2 31 -20 67 -29 67 -18 0 6 -11 14 -25 19 l-25 8 25 28 c28 30 26 31 -23 13z"/>
<path d="M2555 455 c-27 -13 -56 -24 -63 -24 -7 -1 -11 -5 -8 -10 4 -5 0 -12
-6 -14 -10 -4 -10 -6 0 -6 6 -1 12 -6 12 -12 0 -6 -7 -9 -15 -5 -9 3 -15 0
-15 -9 0 -31 35 -12 59 33 6 12 18 22 26 22 8 0 15 5 15 10 0 7 6 7 18 2 12
-7 27 -4 50 8 31 17 31 18 10 24 -30 8 -26 9 -83 -19z"/>
<path d="M26 457 c-29 -10 -36 -35 -9 -32 10 1 31 7 46 14 38 15 40 14 34 -11
-6 -22 -5 -22 8 -4 12 15 12 21 1 32 -15 14 -39 15 -80 1z"/>
<path d="M117 458 c8 -13 9 -19 12 -39 1 -13 31 8 31 22 0 5 -7 9 -15 9 -8 0
-15 5 -15 10 0 6 -5 10 -11 10 -6 0 -7 -5 -2 -12z"/>
<path d="M1680 463 c-14 -3 -29 -11 -33 -20 -5 -8 -20 -19 -34 -24 -19 -7 -23
-13 -16 -20 8 -8 18 -6 34 4 14 8 45 14 72 13 26 0 47 2 47 6 0 3 8 9 18 12 9
3 3 4 -14 3 -29 -3 -59 14 -47 27 4 3 4 5 2 5 -2 -1 -15 -4 -29 -6z"/>
<path d="M639 429 c-19 -20 -49 -46 -66 -58 -18 -12 -33 -27 -33 -32 0 -6 5
-7 10 -4 6 3 10 -1 10 -9 0 -9 5 -16 11 -16 7 0 9 10 5 26 -5 18 -3 24 5 19 6
-4 15 -2 20 6 4 7 20 14 36 15 15 1 31 3 36 3 4 1 7 8 7 17 0 8 5 12 10 9 17
-11 40 3 34 20 -7 17 -34 21 -34 5 0 -5 -8 -10 -17 -10 -14 0 -15 2 -4 9 7 5
11 15 9 22 -3 10 -15 2 -39 -22z"/>
<path d="M1603 443 c-13 -2 -23 -9 -23 -14 0 -6 -4 -8 -8 -5 -12 7 -53 -24
-47 -35 6 -8 -36 -14 -77 -10 -9 1 -19 -7 -23 -19 -4 -13 -15 -20 -31 -20 -13
0 -24 -4 -24 -10 0 -5 5 -10 10 -10 6 0 10 -7 10 -15 0 -8 -4 -15 -10 -15 -5
0 -10 -4 -10 -10 0 -5 9 -10 19 -10 15 0 18 5 14 21 -5 18 -3 20 16 14 14 -4
23 -2 27 9 3 9 12 16 20 16 7 0 17 6 21 13 12 19 58 36 81 30 21 -5 39 12 23
22 -14 8 -2 35 14 35 8 0 17 5 20 10 3 6 5 9 3 9 -2 -1 -13 -4 -25 -6z m-147
-82 c-4 -5 0 -12 6 -14 8 -4 7 -6 -4 -6 -9 -1 -18 -7 -21 -13 -2 -7 -7 -11 -9
-8 -9 8 10 50 22 50 6 0 9 -4 6 -9z"/>
<path d="M172 422 c3 -12 1 -23 -6 -26 -7 -3 -7 -5 2 -5 6 -1 12 -4 12 -8 0
-5 -25 -9 -56 -9 -53 -1 -55 0 -50 21 5 19 3 22 -14 18 -11 -3 -20 -14 -20
-24 0 -13 -7 -19 -22 -19 -20 0 -21 -1 -3 -20 10 -11 30 -20 44 -19 24 1 23 2
-6 10 -48 14 -40 23 12 16 28 -4 45 -3 45 4 0 6 8 6 21 -2 15 -8 19 -8 15 0
-4 6 -2 11 4 11 7 0 14 -9 17 -20 3 -10 14 -22 24 -25 10 -4 19 -11 19 -17 0
-5 -8 -7 -17 -4 -16 5 -15 4 1 -9 10 -8 22 -12 27 -10 4 3 10 1 14 -5 4 -6 11
-8 16 -4 5 3 7 10 4 15 -4 5 -1 9 4 9 23 0 26 2 35 17 5 10 4 18 -5 24 -17 11
-29 11 -28 2 6 -39 -25 -44 -60 -11 l-23 21 23 13 c17 9 28 9 37 2 7 -6 15 -8
19 -4 3 3 0 6 -8 6 -12 0 -11 2 1 11 12 8 9 10 -12 6 -17 -2 -25 0 -22 8 3 7
-7 20 -22 30 -26 17 -27 17 -22 -3z"/>
<path d="M1324 423 c19 -23 46 -31 46 -14 0 5 -8 15 -17 22 -11 10 -14 10 -9
2 4 -7 3 -13 -1 -13 -5 0 -15 6 -23 13 -8 6 -6 2 4 -10z"/>
<path d="M1800 430 c-5 -3 -5 -12 1 -20 8 -13 11 -12 23 3 11 14 15 15 19 5 4
-9 6 -7 6 4 1 16 -28 21 -49 8z"/>
<path d="M2345 426 c-11 -6 -29 -16 -40 -23 -32 -19 -10 -26 24 -8 18 9 36 13
41 10 18 -11 32 5 19 21 -13 16 -17 16 -44 0z"/>
<path d="M725 400 c-15 -17 -16 -20 -3 -15 9 4 19 2 23 -4 3 -6 1 -12 -4 -12
-14 -2 -30 -6 -33 -9 -5 -3 -42 -12 -60 -13 -9 -1 -14 -5 -12 -9 3 -4 1 -8 -4
-8 -16 0 -1 -48 17 -55 13 -5 14 -4 4 6 -19 19 -17 53 2 45 9 -3 18 1 21 9 3
7 12 11 19 8 8 -2 24 2 37 11 25 18 103 22 113 6 4 -6 -8 -10 -28 -10 -33 0
-91 -23 -102 -40 -3 -5 -13 -6 -22 -3 -13 5 -15 2 -10 -11 4 -10 7 -20 7 -22
0 -2 5 -4 11 -4 8 0 7 5 -1 15 -11 13 -10 14 4 9 10 -4 18 0 22 10 4 11 10 13
18 7 7 -6 18 -4 30 5 21 15 74 19 92 6 6 -4 14 -16 18 -27 5 -13 10 -16 13 -7
3 6 9 9 14 6 5 -3 24 -10 41 -15 24 -7 29 -6 20 3 -17 17 -15 28 3 22 16 -6
21 -44 7 -44 -5 0 -14 -11 -20 -25 -16 -34 -15 -39 3 -21 8 8 15 18 15 23 0 5
16 8 35 8 19 -1 35 3 35 8 0 5 -11 7 -25 5 -14 -3 -25 -1 -25 3 0 5 8 9 18 9
27 0 62 -12 58 -19 -2 -3 10 -7 27 -8 l32 -2 -30 16 c-16 9 -33 20 -36 26 -4
5 -14 7 -22 4 -12 -4 -14 -2 -10 10 5 13 1 15 -20 11 -15 -3 -27 -1 -27 3 0 5
-16 9 -36 9 -19 0 -33 -4 -29 -9 3 -6 -4 -9 -15 -8 -13 1 -20 8 -20 22 0 11
-4 25 -8 31 -11 17 -54 37 -81 39 -14 0 -26 6 -29 13 -6 18 -27 14 -47 -8z"/>
<path d="M1690 401 c-8 -6 -17 -8 -21 -6 -3 3 -15 -4 -25 -14 -11 -9 -25 -16
-32 -13 -7 2 -19 -4 -26 -13 -13 -18 -42 -12 -31 6 4 5 -5 4 -19 -2 -24 -11
-43 -49 -25 -49 5 0 9 4 9 9 0 5 9 11 19 14 14 3 21 -2 26 -20 4 -16 11 -23
20 -19 8 3 17 1 20 -5 7 -11 25 -2 25 12 0 6 -4 7 -10 4 -5 -3 -10 -1 -10 6 0
9 -3 9 -14 0 -9 -8 -16 -9 -21 -2 -3 6 6 13 20 17 19 5 30 1 39 -12 12 -15 16
-16 30 -5 9 7 13 18 9 24 -3 5 -2 7 4 4 5 -3 20 7 32 24 22 30 22 30 2 19 -12
-6 -21 -14 -21 -18 0 -13 -52 -32 -66 -24 -10 6 -4 12 21 21 19 7 35 16 35 21
0 4 12 13 28 18 15 6 20 11 12 11 -8 0 -22 -3 -30 -8z"/>
<path d="M2940 390 c-25 -4 -48 -6 -52 -3 -5 2 -8 0 -8 -6 0 -5 19 -8 43 -6
23 1 50 3 60 4 9 1 17 6 17 11 0 6 -3 9 -7 9 -5 -1 -28 -5 -53 -9z"/>
<path d="M1331 374 c7 -8 14 -12 17 -9 3 3 11 0 19 -6 14 -12 43 4 43 23 0 5
-8 2 -17 -7 -14 -14 -18 -15 -27 -4 -6 8 -19 15 -29 15 -14 2 -15 -1 -6 -12z"/>
<path d="M1887 371 c5 -21 -21 -51 -45 -51 -14 0 -14 -2 -3 -9 9 -6 19 -4 28
4 7 8 20 12 28 9 9 -4 15 0 16 10 1 9 2 22 3 29 2 12 -12 27 -26 27 -3 0 -4
-8 -1 -19z"/>
<path d="M383 360 c-10 -10 -30 -23 -43 -29 -19 -7 -20 -10 -7 -10 11 -1 15
-5 11 -13 -4 -7 -3 -8 5 -4 6 4 9 11 6 16 -3 4 7 11 21 14 15 4 24 10 20 13
-3 3 2 12 12 19 10 8 12 13 5 14 -7 0 -20 -9 -30 -20z"/>
<path d="M1819 365 c0 0 -2 -8 -4 -17 -4 -22 11 -24 19 -2 3 8 10 13 15 9 5
-3 12 -1 16 5 4 7 -31 11 -46 5z"/>
<path d="M2212 349 c-18 -11 -36 -17 -40 -15 -4 2 -7 -9 -8 -25 -1 -15 2 -26
7 -24 4 3 14 -4 22 -15 12 -18 15 -18 20 -5 4 10 1 15 -11 15 -14 0 -12 4 8
20 15 12 18 18 8 14 -10 -3 -18 -1 -18 5 0 6 10 11 22 11 12 0 18 3 15 7 -4 3
-2 12 4 20 14 17 11 16 -29 -8z"/>
<path d="M2955 359 c-18 -7 -19 -8 -1 -8 17 -1 17 -3 3 -25 -15 -22 -15 -24 3
-19 22 6 30 22 21 44 -4 12 -12 14 -26 8z"/>
<path d="M2888 333 c-21 -8 -38 -21 -38 -29 0 -8 -10 -14 -25 -14 -31 0 -33
-25 -3 -33 12 -4 24 -4 27 -2 2 3 -1 5 -7 5 -7 0 -12 5 -12 10 0 6 7 10 15 10
8 0 15 5 15 11 0 10 58 35 72 31 4 -1 5 5 2 13 -4 8 -7 15 -8 14 0 0 -18 -7
-38 -16z"/>
<path d="M417 334 c-11 -11 -8 -26 3 -19 12 7 40 -18 40 -35 0 -6 5 -8 10 -5
8 5 7 11 0 20 -7 8 -9 19 -5 25 3 5 2 10 -4 10 -5 0 -16 2 -23 5 -8 3 -17 2
-21 -1z"/>
<path d="M1297 324 c-15 -8 -27 -19 -27 -24 0 -6 -5 -10 -12 -10 -7 0 -23 -12
-35 -27 -13 -14 -23 -21 -23 -15 0 7 -4 12 -10 12 -5 0 -10 -9 -10 -21 0 -12
-4 -17 -11 -13 -6 4 -9 -1 -8 -12 2 -11 -2 -29 -9 -41 -12 -21 0 -44 15 -29 4
3 1 6 -6 6 -21 0 24 63 58 81 17 9 28 19 24 23 -3 3 6 6 20 6 18 0 27 5 27 16
0 10 5 14 16 10 9 -3 12 -2 9 5 -4 6 2 13 14 16 12 3 21 9 21 13 0 16 -26 17
-53 4z"/>
<path d="M2577 329 c-20 -12 -14 -31 8 -23 8 3 24 -4 36 -15 27 -25 39 -27 39
-6 0 9 -6 12 -17 8 -11 -4 -14 -3 -9 5 4 7 3 12 -3 12 -6 0 -8 7 -5 15 7 18
-21 20 -49 4z"/>
<path d="M2677 313 c-11 -11 -8 -38 7 -58 13 -18 15 -18 40 9 22 25 27 46 10
46 -3 0 -3 -4 1 -9 6 -10 -11 -24 -32 -27 -13 -2 -26 23 -17 37 6 10 0 12 -9
2z"/>
<path d="M516 302 c-4 -7 -4 -12 1 -12 4 0 1 -5 -7 -11 -12 -8 -12 -12 -2 -16
10 -4 10 -9 -2 -22 -14 -15 -14 -18 -1 -18 8 0 12 4 9 9 -3 4 -1 8 4 8 13 0
20 31 12 54 -4 14 -9 16 -14 8z"/>
<path d="M1744 289 c-22 -21 -109 -36 -97 -16 4 6 1 7 -7 2 -10 -6 -9 -11 6
-21 10 -7 24 -17 30 -22 12 -11 59 10 48 21 -4 4 -1 7 7 7 24 1 54 29 43 40
-6 6 -17 3 -30 -11z"/>
<path d="M1882 290 c-12 -12 -22 -17 -22 -13 0 4 -5 2 -12 -5 -7 -7 -22 -12
-35 -12 -25 0 -73 -20 -73 -30 0 -4 -12 -12 -26 -19 -15 -6 -24 -14 -21 -18 4
-3 14 0 22 7 9 7 28 13 43 14 20 1 26 6 24 19 -2 10 3 17 13 17 9 0 13 -4 10
-10 -4 -6 1 -7 12 -3 17 6 17 5 0 -15 -17 -19 -17 -20 -2 -18 20 3 39 32 30
46 -4 6 6 10 24 10 21 0 32 6 36 21 10 29 2 32 -23 9z"/>
<path d="M2908 303 c6 -2 12 -9 12 -14 0 -6 -4 -8 -8 -5 -5 3 -8 -4 -7 -14 1
-22 15 -40 15 -21 0 9 5 9 20 1 14 -7 20 -7 20 0 0 5 -6 10 -14 10 -8 0 -18 5
-22 12 -7 11 10 9 47 -6 11 -5 18 -1 21 11 4 16 0 19 -28 16 -19 -1 -34 2 -34
7 0 6 -8 10 -17 9 -11 0 -13 -3 -5 -6z"/>
<path d="M100 291 c0 -5 -8 -12 -17 -14 -12 -3 -8 -5 9 -6 15 0 33 -7 40 -14
7 -8 19 -12 26 -9 6 2 12 -1 12 -7 0 -6 5 -11 10 -11 7 0 7 7 0 20 -6 11 -16
20 -23 19 -19 -3 -47 12 -41 22 3 5 0 9 -5 9 -6 0 -11 -4 -11 -9z"/>
<path d="M18 269 c-23 -13 -14 -36 30 -77 19 -18 32 -35 29 -38 -3 -3 10 -21
28 -40 31 -31 35 -33 65 -22 24 8 34 8 39 -1 4 -6 15 -9 24 -6 14 6 14 8 -2
24 -19 19 -51 24 -48 7 1 -6 -10 -11 -25 -11 -15 -1 -25 1 -23 4 3 2 0 10 -6
18 -13 15 -5 17 20 4 26 -14 23 14 -3 36 -21 18 -21 18 -2 -4 11 -13 14 -23 8
-23 -6 0 -14 5 -18 11 -4 8 -9 7 -15 -2 -7 -11 -11 -10 -23 6 -10 14 -11 22
-3 27 6 4 14 5 18 2 4 -2 11 0 14 6 4 6 3 10 -2 9 -22 -4 -43 2 -57 16 -8 9
-18 16 -21 15 -20 -1 -25 2 -25 15 0 7 8 19 18 24 9 6 13 10 7 10 -5 0 -18 -4
-27 -10z"/>
<path d="M592 256 c-9 -21 -8 -25 13 -30 18 -5 22 -11 18 -23 -4 -10 -2 -14 5
-9 14 8 11 48 -4 42 -7 -3 -9 5 -6 20 6 31 -12 31 -26 0z"/>
<path d="M879 270 c-14 -4 -37 -15 -51 -24 -14 -9 -30 -16 -34 -15 -5 1 -17 1
-28 0 -14 -1 -16 -4 -7 -14 6 -8 8 -18 4 -23 -4 -5 -1 -3 7 4 8 6 20 12 28 12
7 0 28 11 46 25 39 30 66 34 45 8 -13 -16 -12 -17 3 -5 10 8 26 11 38 7 26 -8
26 -1 -2 17 -15 9 -32 12 -49 8z"/>
<path d="M220 262 c0 -7 6 -15 14 -18 8 -3 17 -22 21 -42 6 -31 9 -34 15 -17
4 11 3 23 -2 26 -5 3 -10 15 -11 27 0 11 -5 18 -10 15 -5 -3 -13 1 -18 8 -7
11 -9 11 -9 1z"/>
<path d="M2097 245 c-10 -14 -17 -27 -17 -30 1 -10 -33 -70 -44 -77 -6 -4 -1
-6 11 -6 12 1 19 7 16 15 -3 7 2 16 11 19 9 3 16 12 16 20 0 24 39 43 71 34
32 -10 40 -4 30 23 -9 25 -20 26 -32 4 -10 -17 -11 -16 -27 2 -17 20 -17 20
-35 -4z"/>
<path d="M390 241 c-8 -17 -6 -20 13 -23 14 -2 21 -9 19 -20 -1 -9 2 -19 8
-23 19 -12 10 -26 -12 -21 -13 3 -17 3 -10 0 6 -3 9 -10 6 -16 -4 -7 0 -7 12
0 11 5 25 7 32 5 7 -3 24 -2 39 2 24 6 25 7 7 20 -17 13 -17 16 -4 25 11 7 11
10 2 10 -7 0 -15 -7 -19 -15 -10 -28 -45 13 -39 47 4 24 1 28 -20 28 -13 0
-28 -9 -34 -19z"/>
<path d="M704 229 c-2 -4 -6 -21 -8 -37 -2 -23 0 -28 14 -25 18 5 24 33 7 33
-6 0 -3 8 6 18 15 16 15 19 2 19 -9 0 -18 -4 -21 -8z"/>
<path d="M1067 219 c-9 -5 -22 -7 -29 -3 -6 4 -8 3 -5 -3 4 -6 -6 -13 -23 -17
-17 -3 -33 -13 -36 -21 -11 -27 5 -30 30 -6 13 12 33 23 44 24 12 0 19 3 17 6
-3 2 3 10 13 17 20 16 14 18 -11 3z"/>
<path d="M2233 208 c12 -20 22 -23 67 -20 38 1 56 -2 64 -13 7 -10 21 -14 36
-11 14 2 31 5 38 5 7 1 10 6 7 11 -4 6 -16 8 -26 5 -11 -4 -27 -1 -35 5 -8 7
-38 13 -67 14 -28 0 -58 7 -65 14 -22 20 -36 14 -19 -10z"/>
<path d="M2926 210 c-21 -11 -42 -17 -47 -15 -4 3 -10 1 -13 -4 -3 -5 1 -11 9
-15 8 -3 17 -1 20 5 4 5 11 7 16 4 5 -4 23 3 39 15 30 21 34 20 31 -12 -1 -10
3 -18 8 -18 12 0 14 20 5 44 -8 20 -20 20 -68 -4z"/>
<path d="M183 208 c-12 -16 -11 -43 1 -43 5 0 10 12 10 28 1 31 1 31 -11 15z"/>
<path d="M0 180 c0 -10 9 -22 21 -25 30 -10 31 -3 3 22 -22 20 -24 20 -24 3z"/>
<path d="M780 190 c0 -5 6 -10 14 -10 8 0 18 -5 22 -11 4 -8 -1 -9 -16 -4 -20
6 -21 5 -9 -8 11 -11 19 -12 33 -5 19 10 19 11 -3 29 -26 21 -41 24 -41 9z"/>
<path d="M2501 194 c-1 -6 6 -17 14 -24 9 -7 14 -19 11 -26 -3 -8 -2 -13 2
-13 4 1 17 -2 29 -6 25 -8 28 -46 3 -42 -9 1 -14 -4 -12 -14 1 -10 -7 -19 -21
-23 -21 -5 -78 -46 -65 -46 36 0 123 65 123 92 0 4 8 16 17 28 19 22 18 22
-29 22 -36 0 -40 6 -20 28 10 12 9 12 -5 1 -15 -12 -18 -11 -18 3 0 10 -4 15
-9 12 -5 -4 -12 0 -14 6 -4 8 -6 9 -6 2z"/>
<path d="M2584 189 c-3 -5 0 -9 6 -9 6 0 9 -4 6 -9 -4 -5 2 -8 11 -7 9 2 18 7
20 13 5 13 -35 24 -43 12z"/>
<path d="M1845 180 c11 -5 33 -19 49 -32 25 -21 27 -27 17 -46 -7 -13 -8 -22
-2 -22 5 0 13 9 16 20 4 12 15 20 28 21 l22 0 -22 9 c-12 5 -24 18 -27 28 -5
14 -13 18 -28 14 -14 -3 -19 -1 -14 6 5 8 -3 12 -26 11 -28 0 -30 -2 -13 -9z"/>
<path d="M1095 170 c6 -10 1 -12 -26 -7 -21 5 -29 4 -20 -2 11 -7 8 -11 -10
-17 -45 -14 -88 -12 -107 7 -21 19 -32 16 -32 -9 0 -9 6 -12 16 -8 8 3 12 2 9
-4 -6 -10 9 -15 30 -10 15 2 -7 -17 -25 -23 -8 -2 -3 -3 11 -1 16 2 32 -5 43
-18 10 -11 20 -17 24 -13 4 3 -1 11 -11 16 -9 6 -15 14 -12 20 4 5 1 9 -4 9
-6 0 -11 5 -11 10 0 13 32 9 42 -5 4 -5 15 -2 27 9 11 10 24 15 29 12 15 -9
42 4 42 19 0 8 -5 17 -12 21 -7 5 -8 3 -3 -6z"/>
<path d="M357 153 c-4 -3 -2 -12 4 -20 9 -10 8 -17 -2 -29 -11 -14 -9 -15 16
-12 38 4 43 25 10 38 -14 5 -23 14 -20 20 7 11 2 13 -8 3z"/>
<path d="M640 145 c-7 -9 -18 -14 -25 -11 -6 2 -12 -2 -12 -10 0 -8 4 -14 8
-14 13 0 54 38 48 44 -3 4 -12 -1 -19 -9z"/>
<path d="M705 152 c-6 -7 15 -32 26 -32 5 0 9 8 9 18 0 17 -23 26 -35 14z"/>
<path d="M2210 139 c0 -11 -4 -17 -10 -14 -5 3 -10 -1 -10 -9 0 -10 9 -16 24
-16 25 0 48 20 24 20 -9 1 -7 5 5 14 16 12 16 14 1 20 -26 10 -34 7 -34 -15z"/>
<path d="M270 135 c10 -12 10 -18 0 -30 -10 -12 -7 -15 14 -21 35 -8 49 2 35
28 -8 16 -8 22 2 29 10 6 7 8 -9 6 -23 -1 -27 -7 -14 -23 4 -5 0 -1 -10 8 -20
22 -36 24 -18 3z"/>
<path d="M2436 135 c-11 -8 -17 -15 -13 -15 16 0 -39 -49 -66 -59 -26 -10 -30
-31 -6 -31 6 0 7 5 4 10 -3 6 -1 10 6 10 7 0 23 10 36 22 13 12 26 18 30 13 5
-4 2 -10 -5 -12 -7 -3 -17 -14 -23 -25 -11 -20 -10 -20 19 -3 21 13 28 23 24
37 -3 11 3 25 14 33 11 8 15 15 9 15 -5 1 -1 5 10 10 20 9 20 9 0 9 -11 0 -29
-6 -39 -14z"/>
<path d="M30 117 c11 -11 20 -24 20 -29 0 -14 -19 -8 -29 9 -5 10 -13 15 -17
11 -12 -12 18 -40 38 -35 10 3 18 1 18 -4 0 -4 7 -6 15 -3 11 5 12 10 2 25 -6
10 -17 19 -24 19 -7 0 -10 6 -7 13 2 7 -4 13 -16 14 -20 2 -20 2 0 -20z"/>
<path d="M2358 127 c-7 -8 -20 -12 -28 -9 -9 2 -7 -2 5 -12 17 -13 17 -15 4
-16 -9 0 -22 -7 -29 -15 -7 -8 -16 -13 -20 -10 -5 3 -11 2 -14 -3 -9 -14 32
-11 44 4 7 7 16 11 21 8 5 -3 9 -1 9 4 0 5 10 12 22 15 17 5 19 9 10 20 -7 8
-9 17 -5 20 3 4 4 7 0 7 -3 0 -12 -6 -19 -13z"/>
<path d="M674 99 c-18 -36 -17 -38 16 -28 16 4 19 7 8 8 -25 1 -23 21 2 21 23
0 27 15 5 24 -10 3 -20 -5 -31 -25z"/>
<path d="M1977 112 c-19 -20 -23 -42 -8 -42 6 0 13 5 16 10 4 6 11 8 16 5 10
-7 11 2 0 28 -6 18 -7 18 -24 -1z"/>
<path d="M2866 123 c-15 -4 -16 -7 -5 -14 11 -7 11 -9 -3 -9 -10 0 -18 -4 -18
-9 0 -4 11 -6 25 -3 14 2 22 8 19 13 -3 5 0 9 5 9 6 0 11 5 11 10 0 10 -3 11
-34 3z"/>
<path d="M2605 110 c-3 -5 -1 -10 5 -10 6 0 8 -4 5 -10 -8 -13 1 -13 26 0 10
6 19 16 19 23 0 8 -3 8 -9 -2 -6 -9 -11 -10 -15 -2 -9 14 -23 14 -31 1z"/>
<path d="M736 85 c-13 -19 -13 -25 -3 -25 7 0 18 5 25 12 9 9 12 9 12 -2 0 -7
3 -11 6 -7 3 3 -1 15 -9 27 l-14 21 -17 -26z"/>
<path d="M850 94 c-23 -14 -23 -14 -2 -9 13 4 22 2 22 -4 0 -6 7 -11 16 -11 9
0 12 -5 8 -12 -5 -7 -3 -8 5 -4 8 5 12 3 10 -5 -3 -29 1 -50 11 -44 5 3 6 13
3 22 -5 12 -2 15 9 11 8 -4 21 -2 29 4 11 8 10 9 -3 4 -10 -3 -18 -1 -18 4 0
6 -5 10 -12 10 -7 0 -22 11 -33 24 -19 22 -23 23 -45 10z"/>
<path d="M2129 89 c-10 -6 -8 -9 7 -9 12 0 24 -6 27 -14 6 -16 43 -11 54 7 3
6 1 7 -6 3 -6 -4 -24 -1 -40 7 -18 9 -34 11 -42 6z"/>
<path d="M2658 84 c-16 -8 -28 -22 -27 -32 0 -10 3 -12 6 -4 2 6 9 10 14 6 5
-3 9 0 9 5 0 6 6 11 13 11 6 0 21 7 31 15 20 15 20 15 0 15 -10 -1 -31 -8 -46
-16z"/>
<path d="M166 55 c18 -28 29 -33 20 -10 -3 8 0 15 7 15 16 0 -14 20 -31 20 -9
0 -8 -7 4 -25z"/>
<path d="M2740 72 c0 -12 23 -32 37 -32 22 0 15 16 -12 28 -14 6 -25 8 -25 4z"/>
<path d="M2902 73 c-6 -2 -9 -10 -5 -16 4 -7 0 -8 -11 -4 -10 4 -15 3 -11 -4
4 -5 14 -8 23 -5 10 2 31 7 47 11 27 7 28 8 10 15 -23 10 -35 10 -53 3z"/>
<path d="M2726 53 c4 -17 1 -23 -10 -23 -9 0 -16 -4 -16 -9 0 -12 36 -21 47
-11 4 5 17 10 28 13 16 4 15 5 -6 6 -16 1 -30 10 -38 24 l-11 22 6 -22z"/>
<path d="M123 45 c0 -8 4 -12 9 -9 4 3 8 0 8 -5 0 -6 -4 -11 -10 -11 -5 0 -10
-4 -10 -9 0 -5 9 -7 20 -4 23 6 24 12 6 36 -16 21 -23 22 -23 2z"/>
<path d="M355 51 c-3 -2 0 -10 6 -18 9 -10 15 -10 25 -2 8 6 14 14 14 18 0 7
-38 9 -45 2z"/>
<path d="M1945 49 c-4 -6 -13 -8 -21 -5 -8 3 -14 1 -14 -3 0 -5 -8 -7 -19 -4
-11 3 -21 -2 -24 -11 -7 -19 -6 -19 29 -6 21 8 29 8 36 -2 5 -9 8 -9 8 -1 0 6
8 10 18 8 9 -1 12 0 5 2 -7 2 -9 11 -6 19 6 16 -3 19 -12 3z"/>
<path d="M307 44 c7 -3 10 -11 7 -19 -3 -7 -1 -16 4 -19 13 -8 42 3 42 16 0 5
-4 7 -9 4 -5 -3 -14 1 -21 9 -7 8 -18 15 -24 14 -7 0 -7 -2 1 -5z"/>
<path d="M735 40 c-11 -4 -25 -5 -31 -3 -5 2 -18 -5 -28 -16 -18 -20 -18 -20
48 -20 36 1 66 5 66 10 0 5 9 4 20 -3 25 -16 37 -4 16 17 -9 9 -16 12 -16 5 0
-6 -4 -8 -10 -5 -5 3 -19 1 -31 -5 -16 -9 -24 -9 -33 1 -8 9 -7 11 6 6 10 -3
20 -2 23 3 8 13 -7 18 -30 10z"/>
<path d="M2211 41 c-21 -13 27 -43 50 -31 23 13 42 13 34 0 -3 -6 4 -10 16
-10 22 0 22 0 3 19 -10 10 -22 17 -26 14 -5 -2 -17 -6 -29 -8 -16 -3 -18 -1
-10 8 7 9 5 13 -8 14 -9 1 -23 -2 -30 -6z"/>
<path d="M2579 45 c-1 -3 -2 -10 -3 -15 0 -6 -8 -15 -16 -20 -9 -6 -10 -10 -3
-10 6 0 15 5 18 10 3 5 11 10 16 10 6 0 8 -4 5 -8 -3 -5 9 -9 27 -8 l32 0 -28
10 c-16 6 -26 15 -23 23 3 7 -1 13 -9 13 -8 0 -16 -2 -16 -5z"/>
<path d="M2934 34 c-20 -16 -13 -16 31 2 8 3 15 1 15 -6 0 -6 5 -8 10 -5 18
11 11 25 -13 25 -13 0 -32 -7 -43 -16z"/>
<path d="M2160 20 c-12 -7 -12 -10 2 -15 9 -4 25 -5 35 -3 17 4 16 5 -3 15
-12 7 -26 8 -34 3z"/>
</g>
</svg>
